<svg xmlns="http://www.w3.org/2000/svg" width="275" height="60">
  <g>
    <path fill="#ffffff" d="M27.3766 44.0047h-6.097v-24.452h-9.188v-6.1182h24.4518v6.1183h-9.1668zm33.853-11.6184c0 1.7055-.3055 3.2937-.9166 4.7646-.611 1.471-1.4425 2.743-2.4942 3.816-1.0517 1.073-2.2846 1.918-3.6987 2.536-1.414.618-2.931.927-4.551.927-1.606 0-3.116-.309-4.53-.928-1.414-.618-2.65-1.464-3.709-2.537-1.059-1.073-1.894-2.345-2.505-3.816-.611-1.471-.916-3.06-.916-4.765 0-1.734.306-3.34.917-4.818.611-1.478 1.446-2.754 2.505-3.827s2.295-1.915 3.709-2.526c1.414-.611 2.924-.917 4.53-.917 1.621 0 3.138.287 4.552.863 1.414.575 2.647 1.392 3.699 2.451 1.052 1.059 1.883 2.331 2.495 3.816.611 1.485.917 3.137.917 4.956zm-5.8624 0c0-.938-.1528-1.787-.4583-2.5475-.306-.7603-.722-1.414-1.248-1.9612-.526-.5472-1.141-.9665-1.844-1.2578s-1.453-.437-2.249-.437-1.546.1457-2.249.437c-.704.2913-1.315.7106-1.834 1.2578-.519.547-.928 1.201-1.226 1.9612-.299.7604-.448 1.6096-.448 2.5475 0 .8812.149 1.6984.447 2.4516.298.753.707 1.407 1.225 1.961.519.554 1.13.991 1.833 1.311.703.32 1.453.479 2.249.479s1.545-.15 2.249-.448 1.318-.718 1.844-1.258.941-1.194 1.247-1.962c.305-.768.458-1.613.458-2.537zm25.3686 0c0-.7958-.1528-1.5668-.4583-2.313-.3056-.746-.7213-1.407-1.2472-1.9826-.5258-.5755-1.1405-1.0374-1.844-1.3856-.7035-.348-1.4532-.522-2.249-.522-.796 0-1.5456.135-2.249.405-.7036.27-1.3147.668-1.8334 1.194-.519.526-.928 1.176-1.226 1.951-.299.775-.448 1.66-.448 2.654 0 .953.149 1.809.447 2.569.298.761.707 1.411 1.226 1.951.518.54 1.129.956 1.833 1.247.703.292 1.453.437 2.249.437s1.545-.174 2.249-.522c.703-.348 1.318-.81 1.844-1.385s.942-1.236 1.247-1.982c.305-.746.458-1.517.458-2.313zm5.8625 8.7405c0 1.606-.3056 3.1124-.9167 4.5194-.6112 1.407-1.446 2.6363-2.505 3.688-1.0587 1.0517-2.2952 1.883-3.7092 2.4942-1.4142.6112-2.9242.9167-4.53.9167l-2.9207-.042v-5.82l2.878.043c.9095 0 1.684-.117 2.3236-.352.6395-.234 1.1796-.554 1.6202-.959.4405-.405.7923-.87 1.0552-1.396.263-.526.4726-1.08.629-1.663-.2275.37-.5544.672-.9807.906-.4264.235-.899.427-1.4177.576-.5187.15-1.0588.253-1.6202.309-.561.057-1.083.086-1.566.086-1.606 0-3.116-.277-4.53-.831-1.414-.554-2.65-1.346-3.709-2.377-1.059-1.03-1.893-2.291-2.505-3.784-.611-1.492-.916-3.176-.916-5.052 0-1.719.306-3.318.917-4.796.611-1.478 1.446-2.757 2.505-3.837s2.295-1.925 3.71-2.536c1.414-.611 2.924-.917 4.53-.917.739 0 1.471.093 2.196.277.725.185 1.429.441 2.111.768.683.327 1.333.711 1.951 1.151.619.441 1.198.917 1.738 1.429l2.26-2.707H86.6z"/>
    <path style="opacity: 0.87" fill="#000000" d="M100.0926 38.4194c.2274.071.4548.1172.6822.1385.2274.021.4548.032.6822.032.5685 0 1.1156-.079 1.6415-.235.5258-.157 1.0197-.38 1.4816-.672.462-.292.874-.647 1.237-1.066.363-.419.658-.885.885-1.397l4.264 4.285c-.54.767-1.162 1.456-1.865 2.068-.703.611-1.464 1.13-2.281 1.556-.817.426-1.677.75-2.579.97-.902.22-1.829.33-2.782.33-1.606 0-3.116-.299-4.53-.896-1.414-.597-2.65-1.429-3.709-2.494-1.059-1.066-1.893-2.334-2.505-3.805-.611-1.471-.916-3.088-.916-4.85 0-1.805.306-3.454.917-4.946.611-1.492 1.446-2.764 2.505-3.816s2.296-1.869 3.71-2.452c1.414-.583 2.924-.874 4.53-.874.952 0 1.883.113 2.793.341.91.227 1.773.554 2.59.98.818.426 1.582.948 2.292 1.567.711.618 1.336 1.311 1.876 2.078zm2.9846-12.002c-.27-.0996-.5366-.1636-.7995-.192-.263-.0284-.5365-.0426-.8207-.0426-.796 0-1.5456.1457-2.249.437-.7036.2913-1.3147.707-1.8334 1.247-.5188.5402-.9274 1.1904-1.2258 1.9507-.2985.7604-.4477 1.6166-.4477 2.5688 0 .2132.011.4548.032.7248.022.271.057.544.107.821.05.277.11.544.181.8s.164.483.277.682zm22.32 17.5873c-1.407 0-2.7287-.2665-3.9652-.7994-1.2364-.533-2.32-1.265-3.251-2.1958-.931-.931-1.6628-2.0146-2.1957-3.251-.533-1.2364-.7995-2.5582-.7995-3.9652v-6.779h-2.8353v-5.7987h2.8353v-9.124h5.7986v9.124h8.8257v5.7986h-8.825v6.779c0 .6113.114 1.1833.341 1.7162.228.533.54.9984.938 1.3964.398.398.867.714 1.407.9486.54.2345 1.116.3518 1.727.3518h4.413v5.7985zm13.473 0h-5.82V12.0915h5.82V22.175c.6964-.526 1.414-.899 2.153-1.1192.739-.2203 1.4924-.3304 2.26-.3305 1.407 0 2.7287.2665 3.9652.7995 1.2364.533 2.313 1.265 3.2297 2.1957.917.931 1.642 2.0182 2.175 3.2617.533 1.2436.8 2.5688.8 3.9758v13.0467h-5.863V30.958h.043c0-.597-.113-1.1618-.341-1.6948-.227-.533-.54-.9984-.938-1.3963-.398-.398-.86-.711-1.385-.938-.526-.228-1.088-.342-1.684-.342-.612 0-1.187.113-1.727.341-.54.227-1.009.54-1.407.938-.398.398-.711.863-.938 1.396-.228.533-.341 1.098-.341 1.695zm27.8202-5.5853c.2274.071.4548.1172.6822.1385.2273.021.4547.032.682.032.5686 0 1.1158-.079 1.6416-.235.526-.157 1.0197-.38 1.4816-.672.462-.292.874-.647 1.2365-1.066.3624-.419.6573-.885.8847-1.397l4.2636 4.285c-.54.767-1.1618 1.456-1.8653 2.068-.7035.611-1.464 1.13-2.281 1.556-.8173.426-1.677.75-2.5796.97-.9024.22-1.8298.33-2.782.33-1.606 0-3.116-.299-4.53-.896-1.4142-.597-2.6506-1.429-3.7094-2.494-1.0588-1.066-1.8938-2.334-2.505-3.805-.611-1.471-.9166-3.088-.9166-4.85 0-1.805.3056-3.454.9167-4.946.611-1.492 1.446-2.764 2.505-3.816 1.0587-1.052 2.295-1.869 3.7092-2.452 1.414-.583 2.9242-.874 4.53-.874.9523 0 1.8832.113 2.7928.341.9096.227 1.773.554 2.5902.98.817.426 1.581.948 2.2917 1.567.7105.618 1.336 1.311 1.876 2.078zm2.9845-12.002c-.27-.0996-.537-.1636-.8-.192-.263-.0284-.537-.0426-.821-.0426-.796 0-1.546.1457-2.249.437s-1.315.707-1.834 1.247c-.519.5402-.928 1.1904-1.226 1.9507-.299.7604-.448 1.6166-.448 2.5688 0 .2132.01.4548.032.7248.021.271.056.544.106.821.05.277.11.544.181.8s.163.483.277.682zm16.692 17.5873h-5.82V21.173h1.407l1.918 2.7074c.938-.8527 2.004-1.51 3.197-1.972 1.194-.4618 2.43-.6927 3.709-.6928h5.137v5.7986h-5.138c-.611 0-1.187.1137-1.727.341-.54.2275-1.009.54-1.407.938-.398.398-.711.867-.938 1.407-.228.54-.341 1.1157-.341 1.7268zm18.077 0h-5.82V21.173h1.407l1.918 2.217c.938-.8526 2-1.51 3.187-1.9718 1.187-.462 2.427-.6928 3.72-.693 1.393.0002 2.707.2666 3.944.7996 1.236.533 2.316 1.265 3.24 2.1957.924.931 1.652 2.0182 2.185 3.2617.533 1.2436.799 2.5688.799 3.9758v13.0467h-5.82V30.958c0-.597-.114-1.1618-.341-1.6948-.228-.533-.54-.9984-.938-1.3963-.398-.398-.86-.711-1.386-.938-.526-.228-1.088-.342-1.684-.342-.612 0-1.187.113-1.727.341-.54.227-1.009.54-1.407.938-.398.398-.711.863-.938 1.396-.228.533-.341 1.098-.341 1.695zm27.82-5.5853c.227.071.454.1172.682.1385.227.021.454.032.682.032.568 0 1.116-.079 1.641-.235s1.019-.38 1.481-.672c.462-.292.874-.647 1.236-1.066.362-.419.657-.885.885-1.397l4.263 4.285c-.54.767-1.162 1.456-1.865 2.068-.704.611-1.464 1.13-2.281 1.556-.818.426-1.677.75-2.58.97-.903.22-1.83.33-2.782.33-1.606 0-3.116-.299-4.53-.896-1.414-.597-2.651-1.429-3.71-2.494-1.059-1.066-1.894-2.334-2.505-3.805s-.917-3.088-.917-4.85c0-1.805.305-3.454.916-4.946.611-1.492 1.446-2.764 2.505-3.816s2.295-1.869 3.709-2.452c1.4146-.583 2.925-.874 4.5306-.874.952 0 1.883.113 2.7925.341.909.227 1.7724.554 2.59.98.817.426 1.581.948 2.2913 1.567.7105.618 1.336 1.311 1.876 2.078zm2.984-12.002c-.27-.0996-.537-.1636-.8-.192-.263-.0284-.537-.0426-.821-.0426-.796 0-1.546.1457-2.249.437s-1.315.707-1.834 1.247c-.519.5402-.928 1.1904-1.226 1.9507-.299.7604-.448 1.6166-.448 2.5688 0 .2132.01.4548.032.7248.021.271.057.544.106.821.05.277.11.544.181.8s.163.483.277.682zm22.32 17.5873c-1.407 0-2.729-.2665-3.965-.7994-1.237-.533-2.32-1.265-3.251-2.1958-.931-.931-1.663-2.0146-2.196-3.251-.533-1.2364-.8-2.5582-.8-3.9652v-6.779h-2.835v-5.7987h2.835v-9.124h5.798v9.124h8.825v5.7986h-8.826v6.779c0 .6113.113 1.1833.341 1.7162.227.533.54.9984.938 1.3964.398.398.867.714 1.407.9486.54.2345 1.115.3518 1.727.3518h4.412v5.7985z"/>
  </g>
</svg>
